<svg xmlns="http://www.w3.org/2000/svg" xmlns:xlink="http://www.w3.org/1999/xlink" width="2000" zoomAndPan="magnify" viewBox="0 0 1500 1499.999933" height="2000" preserveAspectRatio="xMidYMid meet" version="1.0"><defs><clipPath id="b6c5ff0bc0"><path d="M 0 166 L 1500 166 L 1500 1355.570312 L 0 1355.570312 Z M 0 166 " clip-rule="nonzero"/></clipPath></defs><g clip-path="url(#b6c5ff0bc0)"><path fill="#000000" d="M 951.902344 168.984375 C 904.402344 175.105469 857.164062 197.511719 814.019531 234.386719 C 784.480469 259.628906 704.308594 353.679688 704.308594 363.085938 C 704.308594 365.152344 755.113281 366.074219 869.503906 366.074219 L 1034.699219 366.074219 L 1055.714844 373.128906 C 1102.589844 388.863281 1163.726562 425.097656 1193.300781 454.671875 C 1223.351562 484.722656 1245.710938 520.3125 1258.980469 559.210938 C 1294.402344 663.0625 1265.519531 784.386719 1186.753906 862.617188 C 1141 908.0625 1090.21875 932.699219 1024.414062 941.378906 C 982.097656 946.960938 878.539062 948.046875 777.914062 943.964844 C 662.179688 939.269531 563 939.289062 518.167969 944.015625 C 398.292969 956.65625 306.605469 993.707031 223.445312 1063.121094 C 188.367188 1092.398438 168.660156 1114.300781 136.167969 1160.125 C 109.277344 1198.085938 82.328125 1236 55.316406 1273.871094 C 38.3125 1297.726562 24.976562 1317.824219 25.683594 1318.527344 C 27.484375 1320.332031 76.878906 1298.523438 149.902344 1263.6875 C 262.808594 1209.828125 306.457031 1191.394531 367.28125 1171.882812 C 450.828125 1145.082031 550.75 1135.925781 697.257812 1141.636719 C 941.570312 1151.160156 1025.726562 1147.949219 1114.664062 1125.703125 C 1234.285156 1095.785156 1325.636719 1030.257812 1395.167969 924.496094 C 1490.945312 778.816406 1502.144531 594.308594 1424.902344 434.8125 C 1378.65625 339.332031 1297.945312 258.183594 1205.214844 213.941406 C 1126.953125 176.597656 1028.457031 159.117188 951.902344 168.984375 M 664.277344 549.539062 C 597.558594 555.472656 564.574219 579.511719 492.273438 674.898438 C 471.109375 702.820312 449.875 729.390625 445.089844 733.945312 C 440.300781 738.5 436.378906 743.28125 436.378906 744.566406 C 436.378906 745.847656 557.898438 746.5625 706.421875 746.152344 C 966.636719 745.433594 976.867188 745.207031 987.429688 739.96875 C 1006.078125 730.710938 1030.503906 705.742188 1040.222656 686 C 1048.566406 669.054688 1049.011719 666.554688 1047.839844 643.25 C 1046.140625 609.496094 1036.683594 592.136719 1009.347656 572.589844 C 989.429688 558.347656 965.535156 552.316406 917.242188 549.335938 C 867.507812 546.261719 699.59375 546.398438 664.277344 549.539062 M -157.296875 1513.730469 C -173.496094 1518.167969 -181.046875 1522.214844 -192.605469 1532.660156 C -211.566406 1549.789062 -216.476562 1561.882812 -216.503906 1591.5 C -216.519531 1613.941406 -215.65625 1618.351562 -209.019531 1629.574219 C -192.976562 1656.703125 -170.550781 1669.523438 -138.777344 1669.71875 C -93.914062 1670.003906 -59.996094 1635.792969 -59.996094 1590.265625 C -59.996094 1561.578125 -78.34375 1531.800781 -103.21875 1520.109375 C -117.21875 1513.527344 -144.71875 1510.285156 -157.296875 1513.730469 M -6.0625 1513.78125 C -35.84375 1521.328125 -52.003906 1554.257812 -37.558594 1577.949219 C -30.519531 1589.492188 -22.941406 1594.339844 3.453125 1604.1875 C 28.390625 1613.488281 33.089844 1616.792969 33.03125 1624.980469 C 32.96875 1633.96875 29.53125 1637.753906 19.648438 1639.730469 C 12.214844 1641.21875 9.332031 1640.105469 2.230469 1633.007812 C -4.605469 1626.171875 -9.609375 1624.117188 -23.246094 1622.53125 C -44.535156 1620.058594 -47.363281 1624.273438 -37.210938 1643.332031 C -27.667969 1661.242188 -10.394531 1669.886719 15.851562 1669.886719 C 50.632812 1669.886719 72.558594 1651.453125 72.558594 1622.203125 C 72.558594 1600.976562 62.847656 1590.425781 33.71875 1579.984375 C -1.679688 1567.300781 -10.742188 1557.949219 1.570312 1546.8125 C 11.195312 1538.097656 30.253906 1544.125 30.253906 1555.886719 C 30.253906 1558.335938 36.082031 1559.078125 50.703125 1558.484375 C 70.699219 1557.671875 71.128906 1557.5 70.210938 1550.605469 C 68.613281 1538.609375 60.085938 1526.914062 48.113281 1520.28125 C 35.269531 1513.171875 8.855469 1510 -6.0625 1513.78125 M 385.386719 1514.1875 C 367.925781 1516.847656 351.722656 1525.550781 340.574219 1538.246094 C 307.707031 1575.679688 318.382812 1639.171875 361.238281 1661.140625 C 375.363281 1668.378906 407.246094 1671.078125 424.273438 1666.472656 C 453.640625 1658.53125 476.820312 1627.730469 475.28125 1598.695312 L 474.453125 1583.039062 L 392.664062 1583.039062 L 392.664062 1608.421875 L 415.933594 1609.238281 C 429.921875 1609.730469 439.199219 1611.25 439.199219 1613.046875 C 439.199219 1614.691406 434.882812 1620.351562 429.609375 1625.625 C 420.886719 1634.347656 418.53125 1635.214844 403.523438 1635.203125 C 374.804688 1635.1875 360.230469 1620.476562 360.230469 1591.5 C 360.230469 1564.070312 375.035156 1547.816406 400.03125 1547.796875 C 410.226562 1547.785156 415.324219 1549.601562 423.601562 1556.175781 C 432.769531 1563.460938 436.375 1564.535156 450.988281 1564.332031 C 462.019531 1564.175781 468.300781 1562.832031 469.222656 1560.425781 C 472.792969 1551.125 450.457031 1525.527344 432.355469 1518.175781 C 420.710938 1513.449219 401.132812 1511.785156 385.386719 1514.1875 M -350.488281 1591.628906 L -350.488281 1669.3125 L -331.449219 1668.484375 L -312.414062 1667.648438 L -311.605469 1640.148438 L -310.800781 1612.652344 L -290.191406 1612.652344 C -263.003906 1612.652344 -247.425781 1605.015625 -238.378906 1587.25 C -227.3125 1565.519531 -231.371094 1541.863281 -248.660156 1527.3125 C -261.507812 1516.503906 -273.980469 1513.972656 -314.527344 1513.957031 L -350.488281 1513.941406 Z M 97.878906 1514.644531 C 97.84375 1515.035156 97.75 1549.617188 97.667969 1591.5 L 97.515625 1667.648438 L 116.0625 1668.484375 L 134.605469 1669.3125 L 134.605469 1513.941406 L 116.273438 1513.941406 C 106.191406 1513.941406 97.914062 1514.257812 97.878906 1514.644531 M 162.808594 1591.5 L 162.808594 1669.058594 L 199.335938 1669.058594 L 200.882812 1576.089844 L 262.242188 1669.058594 L 301.003906 1669.058594 L 301.003906 1513.683594 L 281.96875 1514.515625 L 262.929688 1515.351562 L 262.152344 1561.859375 L 261.371094 1608.363281 L 230.359375 1561.152344 L 199.339844 1513.941406 L 162.808594 1513.941406 Z M 495.605469 1591.5 L 495.605469 1669.191406 L 542.84375 1668.421875 L 590.085938 1667.648438 L 590.085938 1639.445312 L 561.039062 1638.636719 L 531.992188 1637.835938 L 532.835938 1621.714844 L 533.679688 1605.601562 L 558.355469 1604.785156 L 583.035156 1603.96875 L 583.035156 1576.207031 L 558.355469 1575.390625 L 533.679688 1574.578125 L 532.832031 1559.871094 L 531.980469 1545.164062 L 561.035156 1544.359375 L 590.085938 1543.554688 L 590.085938 1515.351562 L 542.84375 1514.578125 L 495.605469 1513.804688 Z M 614.058594 1591.511719 L 614.058594 1669.3125 L 633.09375 1668.484375 L 652.132812 1667.648438 L 654.953125 1583.039062 L 686.664062 1667.648438 L 702.171875 1668.484375 L 717.675781 1669.316406 L 734.261719 1624.777344 L 750.84375 1580.238281 L 751.621094 1624.777344 L 752.398438 1669.3125 L 789.765625 1667.648438 L 790.046875 1593.34375 C 790.203125 1552.476562 789.582031 1517.832031 788.667969 1516.359375 C 787.757812 1514.882812 777.667969 1514.054688 766.25 1514.511719 L 745.484375 1515.351562 L 725.601562 1565.066406 C 714.664062 1592.40625 704.449219 1614.738281 702.898438 1614.691406 C 701.347656 1614.644531 691.007812 1592.273438 679.921875 1564.976562 L 659.761719 1515.351562 L 614.058594 1513.710938 Z M 817.121094 1591.5 L 817.121094 1669.058594 L 853.582031 1669.058594 L 854.386719 1641.558594 L 855.195312 1614.0625 L 879.445312 1612.601562 C 899 1611.425781 905.632812 1609.8125 913.726562 1604.273438 C 947.773438 1580.941406 939.253906 1527.917969 899.691406 1516.929688 C 893.832031 1515.300781 872.859375 1513.964844 853.082031 1513.957031 L 817.121094 1513.941406 Z M 955.316406 1591.5 L 955.316406 1669.058594 L 991.980469 1669.058594 L 991.980469 1513.941406 L 955.316406 1513.941406 Z M 1020.183594 1591.296875 L 1020.183594 1669.058594 L 1056.648438 1669.058594 L 1057.453125 1640.183594 C 1058.539062 1601.171875 1061.984375 1600.96875 1082.230469 1638.722656 L 1097.742188 1667.648438 L 1118.1875 1668.476562 C 1129.433594 1668.929688 1138.636719 1668.136719 1138.636719 1666.714844 C 1138.636719 1665.289062 1131.550781 1651.957031 1122.890625 1637.085938 C 1108.03125 1611.570312 1106.09375 1604.191406 1114.277344 1604.191406 C 1116.207031 1604.191406 1122.101562 1599.738281 1127.375 1594.300781 C 1135.882812 1585.519531 1137.09375 1582.339844 1138.132812 1566.03125 C 1139.152344 1549.976562 1138.402344 1546.296875 1132.167969 1536.882812 C 1120.253906 1518.871094 1109.636719 1515.484375 1061.78125 1514.441406 L 1020.183594 1513.535156 Z M 1164.019531 1591.5 L 1164.019531 1669.058594 L 1210.253906 1669.058594 C 1244.6875 1669.058594 1256.808594 1668.15625 1257.746094 1665.53125 C 1258.828125 1662.507812 1258.660156 1646.675781 1257.472656 1640.148438 C 1257.261719 1638.984375 1244.335938 1638.035156 1228.746094 1638.035156 L 1200.402344 1638.035156 L 1201.246094 1621.816406 L 1202.09375 1605.601562 L 1226.769531 1604.785156 L 1251.449219 1603.96875 L 1251.449219 1576.207031 L 1226.769531 1575.390625 L 1202.09375 1574.578125 L 1201.242188 1559.769531 L 1200.386719 1544.964844 L 1257.089844 1544.964844 L 1257.089844 1513.941406 L 1164.019531 1513.941406 Z M 1385.414062 1520.578125 C 1355.722656 1534.429688 1340.285156 1561.480469 1342.203125 1596.261719 C 1343.5 1619.710938 1348.925781 1632.992188 1363.210938 1647.703125 C 1378.207031 1663.144531 1388.164062 1667.125 1415.027344 1668.421875 C 1437.167969 1669.496094 1440.179688 1668.960938 1454.460938 1661.441406 C 1468.394531 1654.105469 1488.355469 1633.550781 1488.355469 1626.535156 C 1488.355469 1625.101562 1483.429688 1623.933594 1477.410156 1623.933594 C 1468.300781 1623.933594 1465.25 1625.523438 1459.234375 1633.40625 C 1449.761719 1645.828125 1435.886719 1652.136719 1418.035156 1652.136719 C 1399.441406 1652.136719 1387.550781 1647.046875 1376.359375 1634.300781 C 1350.324219 1604.652344 1359.613281 1551.667969 1393.546875 1536.257812 C 1416.59375 1525.792969 1446.710938 1532.390625 1458.742188 1550.539062 C 1463.566406 1557.816406 1466.148438 1559.050781 1476.550781 1559.058594 L 1488.714844 1559.066406 L 1482.316406 1547.675781 C 1465.199219 1517.21875 1419.8125 1504.527344 1385.414062 1520.578125 M 1563.09375 1517.425781 C 1531.859375 1528.65625 1510.980469 1558.378906 1510.933594 1591.691406 C 1510.875 1635.488281 1544.917969 1669.761719 1588.476562 1669.761719 C 1647.773438 1669.761719 1683.097656 1609.632812 1656.15625 1554.566406 C 1647.535156 1536.945312 1633.445312 1524.320312 1615.628906 1518.25 C 1601.214844 1513.335938 1575.589844 1512.9375 1563.09375 1517.425781 M 1691.417969 1592.75 L 1691.417969 1669.058594 L 1711.160156 1669.058594 L 1711.160156 1613.496094 C 1711.160156 1582.726562 1712.230469 1559.132812 1713.558594 1560.617188 C 1714.878906 1562.089844 1726.554688 1587.152344 1739.5 1616.308594 C 1770.777344 1686.738281 1768.789062 1686.792969 1801.09375 1614.722656 C 1814.144531 1585.609375 1825.34375 1562.316406 1825.980469 1562.953125 C 1826.621094 1563.59375 1827.378906 1587.410156 1827.671875 1615.878906 L 1828.203125 1667.648438 L 1837.367188 1668.53125 L 1846.535156 1669.414062 L 1846.535156 1516.417969 L 1836.101562 1517.296875 L 1825.667969 1518.171875 L 1798.730469 1577.976562 C 1783.917969 1610.871094 1771.164062 1638.351562 1770.386719 1639.042969 C 1769.609375 1639.730469 1756.695312 1612.820312 1741.6875 1579.238281 L 1714.398438 1518.171875 L 1702.90625 1517.304688 L 1691.417969 1516.4375 Z M 1567.667969 1534.480469 C 1553.441406 1539.027344 1539.695312 1554.820312 1534.542969 1572.53125 C 1522.449219 1614.140625 1547.832031 1652.136719 1587.730469 1652.136719 C 1617.292969 1652.136719 1636.726562 1636.183594 1643.300781 1606.511719 C 1653.882812 1558.757812 1613.136719 1519.953125 1567.667969 1534.480469 M -311.003906 1565.101562 L -311.003906 1585.238281 L -294.847656 1583.570312 C -276.6875 1581.695312 -271.519531 1577.183594 -271.519531 1563.195312 C -271.519531 1550.390625 -278.929688 1544.964844 -296.421875 1544.964844 L -311.003906 1544.964844 Z M -149.769531 1547.738281 C -170.691406 1552.746094 -183.082031 1576.042969 -178.410156 1601.582031 C -174.410156 1623.457031 -160.933594 1635.097656 -139.527344 1635.171875 C -113.722656 1635.261719 -99.5 1619.746094 -99.5 1591.5 C -99.5 1559.210938 -120.683594 1540.769531 -149.769531 1547.734375 M 854.359375 1564 C 855.132812 1581.625 855.695312 1583.109375 861.910156 1583.988281 C 871.980469 1585.414062 886.890625 1581.964844 891.769531 1577.085938 C 894.148438 1574.710938 896.089844 1568.484375 896.089844 1563.253906 C 896.089844 1550.421875 887.871094 1544.964844 868.539062 1544.964844 L 853.527344 1544.964844 Z M 1058.730469 1546.84375 C 1057.695312 1547.878906 1056.847656 1556.761719 1056.847656 1566.585938 L 1056.847656 1584.449219 L 1070.242188 1584.410156 C 1089.082031 1584.355469 1095.175781 1582.179688 1098.808594 1574.203125 C 1103.738281 1563.386719 1102.601562 1557.148438 1094.542969 1550.8125 C 1087.246094 1545.070312 1063.167969 1542.40625 1058.730469 1546.84375 M 1287.367188 1633.097656 C 1279.910156 1638.765625 1276.796875 1650.28125 1280.644531 1658 C 1290.757812 1678.28125 1321.957031 1672.613281 1321.957031 1650.496094 C 1321.957031 1634.449219 1300.078125 1623.449219 1287.367188 1633.097656 " fill-opacity="1" fill-rule="evenodd"/></g></svg>